<svg width="166" height="55" viewBox="0 0 166 55" fill="none" xmlns="http://www.w3.org/2000/svg">
<g filter="url(#filter0_d)">
<path fill-rule="evenodd" clip-rule="evenodd" d="M0 21.2287V27.9655C9.06661 23.4808 15.4569 18.9378 19.845 13.7583C24.8353 19.44 32.9546 24.3304 40.1077 27.9129V21.1761C32.2349 17.0122 26.4737 12.6361 23.4452 8.60581C23.743 8.07788 24.0251 7.54277 24.2922 7H17.3008C13.9828 12.2269 8.47264 16.7568 0 21.2287ZM105.11 8.28236H111.035C110.9 19.2499 110.691 25.8067 109.058 30.8742H121.403V36.043H106.588C104.227 39.6296 100.567 42.9417 94.8599 47.5999H85.4985C85.8552 47.3502 86.2119 47.0575 86.5309 46.7957L86.6835 46.6707C92.4743 42.0861 96.4278 38.9149 99.1123 36.043H84.0762V30.8742H102.734C104.816 26.2926 104.934 19.8001 105.11 8.28236ZM100.725 17.1645V11.4149L87.5122 9.55648V15.306L100.725 17.1645ZM87.5122 19.3182V25.0677L100.725 26.9261V21.1766L87.5122 19.3182ZM17.3018 47.6029C22.2826 42.6358 26.1553 38.5997 28.5495 36.0391H3.25471V30.8703H30.5736V30.8188H36.6763V36.1038L35.9061 36.9749C35.9004 36.9805 35.8613 37.0236 35.7896 37.1028L35.7892 37.1032L35.7875 37.1051L35.7849 37.108L35.7848 37.1081L35.7848 37.1081C35.0987 37.8656 31.5447 41.7897 25.7745 47.6029H17.3018ZM51.484 9.55648H72.6978H78.7978H78.8004V47.6544H78.7978V47.6605H45.3813V47.6544V42.4917V30.8694V25.7006V14.7253V9.55648H51.484ZM72.6978 42.4917H51.484V30.8694H70.0882V25.7006H51.484V14.7253H72.6978V42.4917ZM142.193 30.8742H126.616V36.043H142.193V47.6557H148.296V36.043H163.943V30.8742H148.296V27.9678H142.193V30.8742ZM138.934 9.55648H156.419H161.867H161.87V15.5383C160.159 17.0316 157.593 19.1866 153.137 21.4489C156.244 22.234 159.834 22.9853 163.999 23.6697V29.1869C155.967 27.8995 149.861 26.3589 145.142 24.7743C140.371 26.4031 134.329 27.9453 126.616 29.1862V23.669C130.661 23.0022 134.165 22.2748 137.211 21.5161C133.944 19.8687 131.832 18.3342 130.227 17.1652C130.044 17.0312 128.671 15.9699 128.046 15.4868L127.677 15.2472L133.306 7.00037L138.934 9.55572L138.934 9.55648ZM154.268 14.7253C152.291 16.0383 149.497 17.5596 145.318 19.0795C141.144 17.5607 138.319 16.0384 136.258 14.7253H154.268ZM115.594 38.5981H108.424L114.172 47.658H121.4L115.594 38.5981ZM151.084 38.5981H158.253L164 47.658H156.831L151.084 38.5981ZM139.594 38.5981H132.425L126.678 47.658H133.847L139.594 38.5981ZM15.1073 20.9425V26.692L26.1276 28.202V22.4524L15.1073 20.9425Z" fill="white"/>
</g>
<defs>
<filter id="filter0_d" x="0" y="7" width="166" height="42.6605" filterUnits="userSpaceOnUse" color-interpolation-filters="sRGB">
<feFlood flood-opacity="0" result="BackgroundImageFix"/>
<feColorMatrix in="SourceAlpha" type="matrix" values="0 0 0 0 0 0 0 0 0 0 0 0 0 0 0 0 0 0 127 0"/>
<feOffset dx="1" dy="1"/>
<feGaussianBlur stdDeviation="0.5"/>
<feColorMatrix type="matrix" values="0 0 0 0 0 0 0 0 0 0 0 0 0 0 0 0 0 0 0.2 0"/>
<feBlend mode="normal" in2="BackgroundImageFix" result="effect1_dropShadow"/>
<feBlend mode="normal" in="SourceGraphic" in2="effect1_dropShadow" result="shape"/>
</filter>
</defs>
</svg>
